# xmcd
#
# Track frame offsets:
#	150
#	9697
#	29122
#	49847
#	74570
#	93062
#	116410
#	138917
#	155827
#	182887
#	204945
#
# Disc length: 3005 seconds
#
# Revision: 1
# Processed by: cddbd v1.5.1PL0 Copyright (c) Steve Scherf et al.
# Submitted via: CDex 1.50Beta5
#
DISCID=9a0bbb0b
DTITLE=チェイス - CHASE
DYEAR=1994
DGENRE=
TTITLE0=C・H・A・S・E
TTITLE1=夢の続き
TTITLE2=晴れのちぬくもり
TTITLE3=あの空をもう一度
TTITLE4=君への想い
TTITLE5=恋をしようよ
TTITLE6=真夜中の虹
TTITLE7=旅立ち
TTITLE8=遠く離れても
TTITLE9=夏よ恋
TTITLE10=やさしい風
EXTD=
EXTT0=
EXTT1=
EXTT2=
EXTT3=
EXTT4=
EXTT5=
EXTT6=
EXTT7=
EXTT8=
EXTT9=
EXTT10=
PLAYORDER=
